<mxfile host="65bd71144e" modified="2020-10-13T21:31:29.055Z" agent="5.0 (Windows NT 6.3; ) AppleWebKit/537.36 (KHTML, like Gecko) Code/1.50.0 Chrome/83.0.4103.122 Electron/9.2.1 Safari/537.36" etag="zGy5WfZmz_rYDhhI1ZTM" version="13.6.5" pages="5">
    <diagram id="B9R58qiyjYrXAxygLYCt" name="Estructura index.php">
        <mxGraphModel dx="610" dy="358" grid="1" gridSize="10" guides="1" tooltips="1" connect="1" arrows="1" fold="1" page="1" pageScale="1" pageWidth="827" pageHeight="1169" math="0" shadow="0">
            <root>
                <mxCell id="0"/>
                <mxCell id="1" parent="0"/>
                <mxCell id="UH9kfUeuJcftcaZalcn4-20" value="" style="group" parent="1" vertex="1" connectable="0">
                    <mxGeometry x="400" y="80" width="767.5" height="752.5" as="geometry"/>
                </mxCell>
                <mxCell id="UH9kfUeuJcftcaZalcn4-15" value="" style="group" parent="UH9kfUeuJcftcaZalcn4-20" vertex="1" connectable="0">
                    <mxGeometry width="320" height="750" as="geometry"/>
                </mxCell>
                <mxCell id="UH9kfUeuJcftcaZalcn4-9" value="" style="whiteSpace=wrap;html=1;aspect=fixed;" parent="UH9kfUeuJcftcaZalcn4-15" vertex="1">
                    <mxGeometry y="430" width="320" height="320" as="geometry"/>
                </mxCell>
                <mxCell id="UH9kfUeuJcftcaZalcn4-8" value="" style="group" parent="UH9kfUeuJcftcaZalcn4-15" vertex="1" connectable="0">
                    <mxGeometry width="320" height="320" as="geometry"/>
                </mxCell>
                <mxCell id="UH9kfUeuJcftcaZalcn4-5" value="" style="whiteSpace=wrap;html=1;aspect=fixed;" parent="UH9kfUeuJcftcaZalcn4-8" vertex="1">
                    <mxGeometry width="320" height="320" as="geometry"/>
                </mxCell>
                <mxCell id="UH9kfUeuJcftcaZalcn4-1" value="" style="verticalLabelPosition=bottom;shadow=0;dashed=0;align=center;html=1;verticalAlign=top;strokeWidth=1;shape=mxgraph.mockup.containers.userMale;strokeColor=#666666;strokeColor2=#008cff;" parent="UH9kfUeuJcftcaZalcn4-8" vertex="1">
                    <mxGeometry x="30.967741935483872" y="108.38709677419355" width="103.2258064516129" height="103.2258064516129" as="geometry"/>
                </mxCell>
                <mxCell id="UH9kfUeuJcftcaZalcn4-2" value="" style="verticalLabelPosition=bottom;shadow=0;dashed=0;align=center;html=1;verticalAlign=top;strokeWidth=1;shape=mxgraph.mockup.containers.userFemale;strokeColor=#666666;strokeColor2=#008cff;" parent="UH9kfUeuJcftcaZalcn4-8" vertex="1">
                    <mxGeometry x="196.1290322580645" y="108.38709677419355" width="103.2258064516129" height="103.2258064516129" as="geometry"/>
                </mxCell>
                <mxCell id="UH9kfUeuJcftcaZalcn4-3" value="" style="endArrow=none;html=1;" parent="UH9kfUeuJcftcaZalcn4-8" edge="1">
                    <mxGeometry width="50" height="50" relative="1" as="geometry">
                        <mxPoint x="165.16129032258064" y="273.5483870967742" as="sourcePoint"/>
                        <mxPoint x="165.16129032258064" y="25.806451612903224" as="targetPoint"/>
                    </mxGeometry>
                </mxCell>
                <mxCell id="UH9kfUeuJcftcaZalcn4-6" value="Administrativo" style="text;html=1;strokeColor=none;fillColor=none;align=center;verticalAlign=middle;whiteSpace=wrap;rounded=0;" parent="UH9kfUeuJcftcaZalcn4-8" vertex="1">
                    <mxGeometry x="61.935483870967744" y="67.09677419354838" width="41.29032258064516" height="20.64516129032258" as="geometry"/>
                </mxCell>
                <mxCell id="UH9kfUeuJcftcaZalcn4-7" value="Básico" style="text;html=1;strokeColor=none;fillColor=none;align=center;verticalAlign=middle;whiteSpace=wrap;rounded=0;" parent="UH9kfUeuJcftcaZalcn4-8" vertex="1">
                    <mxGeometry x="227.09677419354838" y="67.09677419354838" width="41.29032258064516" height="20.64516129032258" as="geometry"/>
                </mxCell>
                <mxCell id="UH9kfUeuJcftcaZalcn4-10" style="edgeStyle=orthogonalEdgeStyle;rounded=0;orthogonalLoop=1;jettySize=auto;html=1;" parent="UH9kfUeuJcftcaZalcn4-15" source="UH9kfUeuJcftcaZalcn4-5" target="UH9kfUeuJcftcaZalcn4-9" edge="1">
                    <mxGeometry relative="1" as="geometry"/>
                </mxCell>
                <mxCell id="UH9kfUeuJcftcaZalcn4-11" value="VISUALIZACIÓN DE FORMULARIO DE INICIO DE SESIÓN&amp;nbsp;" style="text;html=1;strokeColor=none;fillColor=none;align=center;verticalAlign=middle;whiteSpace=wrap;rounded=0;" parent="UH9kfUeuJcftcaZalcn4-15" vertex="1">
                    <mxGeometry x="210" y="370" width="40" height="20" as="geometry"/>
                </mxCell>
                <mxCell id="UH9kfUeuJcftcaZalcn4-12" value="Formulario" style="whiteSpace=wrap;html=1;aspect=fixed;" parent="UH9kfUeuJcftcaZalcn4-15" vertex="1">
                    <mxGeometry x="90" y="525" width="130" height="130" as="geometry"/>
                </mxCell>
                <mxCell id="UH9kfUeuJcftcaZalcn4-19" value="" style="group" parent="UH9kfUeuJcftcaZalcn4-20" vertex="1" connectable="0">
                    <mxGeometry x="437.5" width="330" height="752.5" as="geometry"/>
                </mxCell>
                <mxCell id="UH9kfUeuJcftcaZalcn4-16" value="" style="whiteSpace=wrap;html=1;aspect=fixed;" parent="UH9kfUeuJcftcaZalcn4-19" vertex="1">
                    <mxGeometry width="330" height="330" as="geometry"/>
                </mxCell>
                <mxCell id="UH9kfUeuJcftcaZalcn4-17" style="edgeStyle=orthogonalEdgeStyle;rounded=0;orthogonalLoop=1;jettySize=auto;html=1;" parent="UH9kfUeuJcftcaZalcn4-19" source="UH9kfUeuJcftcaZalcn4-13" target="UH9kfUeuJcftcaZalcn4-16" edge="1">
                    <mxGeometry relative="1" as="geometry"/>
                </mxCell>
                <mxCell id="UH9kfUeuJcftcaZalcn4-13" value="VALIDACIÓN DE USUARIO" style="whiteSpace=wrap;html=1;aspect=fixed;" parent="UH9kfUeuJcftcaZalcn4-19" vertex="1">
                    <mxGeometry x="2.5" y="427.5" width="325" height="325" as="geometry"/>
                </mxCell>
                <mxCell id="UH9kfUeuJcftcaZalcn4-18" value="MODELO VCM DEL USUARIO INGRESADO." style="whiteSpace=wrap;html=1;aspect=fixed;" parent="UH9kfUeuJcftcaZalcn4-19" vertex="1">
                    <mxGeometry x="32.5" y="40" width="260" height="260" as="geometry"/>
                </mxCell>
                <mxCell id="UH9kfUeuJcftcaZalcn4-14" style="edgeStyle=orthogonalEdgeStyle;rounded=0;orthogonalLoop=1;jettySize=auto;html=1;" parent="UH9kfUeuJcftcaZalcn4-20" source="UH9kfUeuJcftcaZalcn4-9" target="UH9kfUeuJcftcaZalcn4-13" edge="1">
                    <mxGeometry relative="1" as="geometry"/>
                </mxCell>
            </root>
        </mxGraphModel>
    </diagram>
    <diagram id="cEnhFZVIXlf6TCmNduet" name="Diagrama estructural del usuario">
        &#xa;        &#xa;&#xa;
        <mxGraphModel dx="370" dy="358" grid="1" gridSize="10" guides="1" tooltips="1" connect="1" arrows="1" fold="1" page="1" pageScale="1" pageWidth="827" pageHeight="1169" background="#F1FAEE" math="0" shadow="0">
            &#xa;            &#xa;&#xa;
            <root>
                &#xa;                &#xa;&#xa;
                <mxCell id="DMQ5bG6MDP-E045uXYeb-0"/>
                &#xa;                &#xa;&#xa;
                <mxCell id="DMQ5bG6MDP-E045uXYeb-1" parent="DMQ5bG6MDP-E045uXYeb-0"/>
                &#xa;                &#xa;&#xa;
                <mxCell id="DMQ5bG6MDP-E045uXYeb-2" style="edgeStyle=orthogonalEdgeStyle;orthogonalLoop=1;jettySize=auto;html=1;labelBackgroundColor=#F1FAEE;strokeColor=#457B9D;fontColor=#1D3557;" parent="DMQ5bG6MDP-E045uXYeb-1" source="DMQ5bG6MDP-E045uXYeb-3" edge="1">
                    &#xa;                    &#xa;&#xa;
                    <mxGeometry relative="1" as="geometry">
                        &#xa;                        &#xa;&#xa;
                        <mxPoint x="355" y="270" as="targetPoint"/>
                        &#xa;                        &#xa;&#xa;
                    </mxGeometry>
                    &#xa;                    &#xa;&#xa;
                </mxCell>
                &#xa;                &#xa;&#xa;
                <mxCell id="DMQ5bG6MDP-E045uXYeb-3" value="Actor" style="shape=umlActor;verticalLabelPosition=bottom;verticalAlign=top;html=1;outlineConnect=0;fillColor=#A8DADC;strokeColor=#457B9D;fontColor=#1D3557;" parent="DMQ5bG6MDP-E045uXYeb-1" vertex="1">
                    &#xa;                    &#xa;&#xa;
                    <mxGeometry x="340" y="100" width="30" height="70" as="geometry"/>
                    &#xa;                    &#xa;&#xa;
                </mxCell>
                &#xa;                &#xa;&#xa;
                <mxCell id="DMQ5bG6MDP-E045uXYeb-4" value="Usuario inicia sesion" style="text;html=1;strokeColor=none;fillColor=none;align=center;verticalAlign=middle;whiteSpace=wrap;fontColor=#1D3557;" parent="DMQ5bG6MDP-E045uXYeb-1" vertex="1">
                    &#xa;                    &#xa;&#xa;
                    <mxGeometry x="335" y="50" width="40" height="20" as="geometry"/>
                    &#xa;                    &#xa;&#xa;
                </mxCell>
                &#xa;                &#xa;&#xa;
                <mxCell id="DMQ5bG6MDP-E045uXYeb-5" style="edgeStyle=orthogonalEdgeStyle;orthogonalLoop=1;jettySize=auto;html=1;entryX=0.5;entryY=0;entryDx=0;entryDy=0;labelBackgroundColor=#F1FAEE;strokeColor=#457B9D;fontColor=#1D3557;" parent="DMQ5bG6MDP-E045uXYeb-1" source="DMQ5bG6MDP-E045uXYeb-6" target="DMQ5bG6MDP-E045uXYeb-11" edge="1">
                    &#xa;                    &#xa;&#xa;
                    <mxGeometry relative="1" as="geometry"/>
                    &#xa;                    &#xa;&#xa;
                </mxCell>
                &#xa;                &#xa;&#xa;
                <mxCell id="DMQ5bG6MDP-E045uXYeb-6" value="Valida la sesión y hace un insert into en la tabla historial_sesion" style="text;html=1;strokeColor=none;fillColor=none;align=center;verticalAlign=middle;whiteSpace=wrap;fontColor=#1D3557;" parent="DMQ5bG6MDP-E045uXYeb-1" vertex="1">
                    &#xa;                    &#xa;&#xa;
                    <mxGeometry x="275" y="290" width="160" height="20" as="geometry"/>
                    &#xa;                    &#xa;&#xa;
                </mxCell>
                &#xa;                &#xa;&#xa;
                <mxCell id="DMQ5bG6MDP-E045uXYeb-7" style="edgeStyle=orthogonalEdgeStyle;orthogonalLoop=1;jettySize=auto;html=1;entryX=0.5;entryY=0;entryDx=0;entryDy=0;labelBackgroundColor=#F1FAEE;strokeColor=#457B9D;fontColor=#1D3557;" parent="DMQ5bG6MDP-E045uXYeb-1" source="DMQ5bG6MDP-E045uXYeb-11" target="DMQ5bG6MDP-E045uXYeb-14" edge="1">
                    &#xa;                    &#xa;&#xa;
                    <mxGeometry relative="1" as="geometry"/>
                    &#xa;                    &#xa;&#xa;
                </mxCell>
                &#xa;                &#xa;&#xa;
                <mxCell id="DMQ5bG6MDP-E045uXYeb-8" style="edgeStyle=orthogonalEdgeStyle;orthogonalLoop=1;jettySize=auto;html=1;entryX=0.5;entryY=0;entryDx=0;entryDy=0;labelBackgroundColor=#F1FAEE;strokeColor=#457B9D;fontColor=#1D3557;" parent="DMQ5bG6MDP-E045uXYeb-1" source="DMQ5bG6MDP-E045uXYeb-11" target="DMQ5bG6MDP-E045uXYeb-12" edge="1">
                    &#xa;                    &#xa;&#xa;
                    <mxGeometry relative="1" as="geometry"/>
                    &#xa;                    &#xa;&#xa;
                </mxCell>
                &#xa;                &#xa;&#xa;
                <mxCell id="DMQ5bG6MDP-E045uXYeb-9" style="edgeStyle=orthogonalEdgeStyle;orthogonalLoop=1;jettySize=auto;html=1;labelBackgroundColor=#F1FAEE;strokeColor=#457B9D;fontColor=#1D3557;" parent="DMQ5bG6MDP-E045uXYeb-1" source="DMQ5bG6MDP-E045uXYeb-11" target="DMQ5bG6MDP-E045uXYeb-13" edge="1">
                    &#xa;                    &#xa;&#xa;
                    <mxGeometry relative="1" as="geometry"/>
                    &#xa;                    &#xa;&#xa;
                </mxCell>
                &#xa;                &#xa;&#xa;
                <mxCell id="DMQ5bG6MDP-E045uXYeb-10" style="edgeStyle=orthogonalEdgeStyle;orthogonalLoop=1;jettySize=auto;html=1;entryX=0.5;entryY=0;entryDx=0;entryDy=0;labelBackgroundColor=#F1FAEE;strokeColor=#457B9D;fontColor=#1D3557;" parent="DMQ5bG6MDP-E045uXYeb-1" source="DMQ5bG6MDP-E045uXYeb-11" target="DMQ5bG6MDP-E045uXYeb-15" edge="1">
                    &#xa;                    &#xa;&#xa;
                    <mxGeometry relative="1" as="geometry"/>
                    &#xa;                    &#xa;&#xa;
                </mxCell>
                &#xa;                &#xa;&#xa;
                <mxCell id="DMQ5bG6MDP-E045uXYeb-11" value="PANEL DEL USUARIO" style="text;html=1;strokeColor=none;fillColor=none;align=center;verticalAlign=middle;whiteSpace=wrap;fontColor=#1D3557;" parent="DMQ5bG6MDP-E045uXYeb-1" vertex="1">
                    &#xa;                    &#xa;&#xa;
                    <mxGeometry x="277.5" y="440" width="155" height="80" as="geometry"/>
                    &#xa;                    &#xa;&#xa;
                </mxCell>
                &#xa;                &#xa;&#xa;
                <mxCell id="DMQ5bG6MDP-E045uXYeb-12" value="Solicitar carpeta&amp;nbsp;" style="whiteSpace=wrap;html=1;aspect=fixed;fillColor=#A8DADC;strokeColor=#457B9D;fontColor=#1D3557;" parent="DMQ5bG6MDP-E045uXYeb-1" vertex="1">
                    &#xa;                    &#xa;&#xa;
                    <mxGeometry x="230" y="585" width="80" height="80" as="geometry"/>
                    &#xa;                    &#xa;&#xa;
                </mxCell>
                &#xa;                &#xa;&#xa;
                <mxCell id="DMQ5bG6MDP-E045uXYeb-13" value="Agregar modificaciones a la carpeta" style="whiteSpace=wrap;html=1;aspect=fixed;fillColor=#A8DADC;strokeColor=#457B9D;fontColor=#1D3557;" parent="DMQ5bG6MDP-E045uXYeb-1" vertex="1">
                    &#xa;                    &#xa;&#xa;
                    <mxGeometry x="370" y="585" width="80" height="80" as="geometry"/>
                    &#xa;                    &#xa;&#xa;
                </mxCell>
                &#xa;                &#xa;&#xa;
                <mxCell id="DMQ5bG6MDP-E045uXYeb-14" value="Ver carpetas disponibles" style="whiteSpace=wrap;html=1;aspect=fixed;fillColor=#A8DADC;strokeColor=#457B9D;fontColor=#1D3557;" parent="DMQ5bG6MDP-E045uXYeb-1" vertex="1">
                    &#xa;                    &#xa;&#xa;
                    <mxGeometry x="100" y="585" width="80" height="80" as="geometry"/>
                    &#xa;                    &#xa;&#xa;
                </mxCell>
                &#xa;                &#xa;&#xa;
                <mxCell id="DMQ5bG6MDP-E045uXYeb-15" value="Historial de carpetas prestadas" style="whiteSpace=wrap;html=1;aspect=fixed;fillColor=#A8DADC;strokeColor=#457B9D;fontColor=#1D3557;" parent="DMQ5bG6MDP-E045uXYeb-1" vertex="1">
                    &#xa;                    &#xa;&#xa;
                    <mxGeometry x="520" y="585" width="80" height="80" as="geometry"/>
                    &#xa;                    &#xa;&#xa;
                </mxCell>
                &#xa;                &#xa;&#xa;
            </root>
            &#xa;            &#xa;&#xa;
        </mxGraphModel>
        &#xa;        &#xa;&#xa;
    </diagram>
    <diagram id="pxLhAsTF4Vo4XUf242m_" name="Sentencias SQL">
        &#xa;        &#xa;&#xa;
        <mxGraphModel dx="370" dy="358" grid="1" gridSize="10" guides="1" tooltips="1" connect="1" arrows="1" fold="1" page="1" pageScale="1" pageWidth="827" pageHeight="1169" math="0" shadow="0">
            &#xa;            &#xa;&#xa;
            <root>
                &#xa;                &#xa;&#xa;
                <mxCell id="d41SKahuUn7vnWfEfB7f-0"/>
                &#xa;                &#xa;&#xa;
                <mxCell id="d41SKahuUn7vnWfEfB7f-1" parent="d41SKahuUn7vnWfEfB7f-0"/>
                &#xa;                &#xa;&#xa;
                <mxCell id="d41SKahuUn7vnWfEfB7f-2" value="" style="group" parent="d41SKahuUn7vnWfEfB7f-1" vertex="1" connectable="0">
                    &#xa;                    &#xa;&#xa;
                    <mxGeometry x="60" y="80" width="740" height="790" as="geometry"/>
                    &#xa;                    &#xa;&#xa;
                </mxCell>
                &#xa;                &#xa;&#xa;
                <mxCell id="d41SKahuUn7vnWfEfB7f-3" value="tabla carpeta" style="whiteSpace=wrap;html=1;aspect=fixed;" parent="d41SKahuUn7vnWfEfB7f-2" vertex="1">
                    &#xa;                    &#xa;&#xa;
                    <mxGeometry x="10" y="30" width="80" height="80" as="geometry"/>
                    &#xa;                    &#xa;&#xa;
                </mxCell>
                &#xa;                &#xa;&#xa;
                <mxCell id="d41SKahuUn7vnWfEfB7f-4" value="tabla carpeta_modificaciones" style="whiteSpace=wrap;html=1;aspect=fixed;" parent="d41SKahuUn7vnWfEfB7f-2" vertex="1">
                    &#xa;                    &#xa;&#xa;
                    <mxGeometry x="400" width="160" height="160" as="geometry"/>
                    &#xa;                    &#xa;&#xa;
                </mxCell>
                &#xa;                &#xa;&#xa;
                <mxCell id="d41SKahuUn7vnWfEfB7f-5" style="edgeStyle=orthogonalEdgeStyle;rounded=0;orthogonalLoop=1;jettySize=auto;html=1;" parent="d41SKahuUn7vnWfEfB7f-2" source="d41SKahuUn7vnWfEfB7f-7" target="d41SKahuUn7vnWfEfB7f-4" edge="1">
                    &#xa;                    &#xa;&#xa;
                    <mxGeometry relative="1" as="geometry"/>
                    &#xa;                    &#xa;&#xa;
                </mxCell>
                &#xa;                &#xa;&#xa;
                <mxCell id="d41SKahuUn7vnWfEfB7f-6" style="edgeStyle=orthogonalEdgeStyle;rounded=0;orthogonalLoop=1;jettySize=auto;html=1;" parent="d41SKahuUn7vnWfEfB7f-2" source="d41SKahuUn7vnWfEfB7f-7" target="d41SKahuUn7vnWfEfB7f-3" edge="1">
                    &#xa;                    &#xa;&#xa;
                    <mxGeometry relative="1" as="geometry"/>
                    &#xa;                    &#xa;&#xa;
                </mxCell>
                &#xa;                &#xa;&#xa;
                <mxCell id="d41SKahuUn7vnWfEfB7f-7" value="&lt;h1&gt;TRIGGER&lt;/h1&gt;&lt;p&gt;HACER UN TRIGGER EN LA TABLA CARPETA AGREGANDO Y HACIENDO UN UPDATE DE LA CARPETA&lt;/p&gt;" style="text;html=1;strokeColor=none;fillColor=none;spacing=5;spacingTop=-20;whiteSpace=wrap;overflow=hidden;rounded=0;" parent="d41SKahuUn7vnWfEfB7f-2" vertex="1">
                    &#xa;                    &#xa;&#xa;
                    <mxGeometry x="160" y="10" width="190" height="120" as="geometry"/>
                    &#xa;                    &#xa;&#xa;
                </mxCell>
                &#xa;                &#xa;&#xa;
                <mxCell id="d41SKahuUn7vnWfEfB7f-8" value="Tabla usuario" style="whiteSpace=wrap;html=1;aspect=fixed;" parent="d41SKahuUn7vnWfEfB7f-2" vertex="1">
                    &#xa;                    &#xa;&#xa;
                    <mxGeometry y="280" width="80" height="80" as="geometry"/>
                    &#xa;                    &#xa;&#xa;
                </mxCell>
                &#xa;                &#xa;&#xa;
                <mxCell id="d41SKahuUn7vnWfEfB7f-9" value="Tabla inicio_sesión" style="whiteSpace=wrap;html=1;aspect=fixed;" parent="d41SKahuUn7vnWfEfB7f-2" vertex="1">
                    &#xa;                    &#xa;&#xa;
                    <mxGeometry x="420" y="280" width="80" height="80" as="geometry"/>
                    &#xa;                    &#xa;&#xa;
                </mxCell>
                &#xa;                &#xa;&#xa;
                <mxCell id="d41SKahuUn7vnWfEfB7f-10" style="edgeStyle=orthogonalEdgeStyle;rounded=0;orthogonalLoop=1;jettySize=auto;html=1;" parent="d41SKahuUn7vnWfEfB7f-2" source="d41SKahuUn7vnWfEfB7f-12" target="d41SKahuUn7vnWfEfB7f-8" edge="1">
                    &#xa;                    &#xa;&#xa;
                    <mxGeometry relative="1" as="geometry"/>
                    &#xa;                    &#xa;&#xa;
                </mxCell>
                &#xa;                &#xa;&#xa;
                <mxCell id="d41SKahuUn7vnWfEfB7f-11" style="edgeStyle=orthogonalEdgeStyle;rounded=0;orthogonalLoop=1;jettySize=auto;html=1;" parent="d41SKahuUn7vnWfEfB7f-2" source="d41SKahuUn7vnWfEfB7f-12" target="d41SKahuUn7vnWfEfB7f-9" edge="1">
                    &#xa;                    &#xa;&#xa;
                    <mxGeometry relative="1" as="geometry"/>
                    &#xa;                    &#xa;&#xa;
                </mxCell>
                &#xa;                &#xa;&#xa;
                <mxCell id="d41SKahuUn7vnWfEfB7f-12" value="&lt;h1&gt;INSERT INTO EN APLICACIÓN WEB&lt;/h1&gt;&lt;p&gt;Hacer un insert into en la tabla inicio_sesion para mantener un registro de quien inició sesión al aplicativo&lt;/p&gt;" style="text;html=1;strokeColor=none;fillColor=none;spacing=5;spacingTop=-20;whiteSpace=wrap;overflow=hidden;rounded=0;" parent="d41SKahuUn7vnWfEfB7f-2" vertex="1">
                    &#xa;                    &#xa;&#xa;
                    <mxGeometry x="150" y="250" width="190" height="120" as="geometry"/>
                    &#xa;                    &#xa;&#xa;
                </mxCell>
                &#xa;                &#xa;&#xa;
                <mxCell id="d41SKahuUn7vnWfEfB7f-13" value="tabla prestamo_carpeta" style="whiteSpace=wrap;html=1;aspect=fixed;" parent="d41SKahuUn7vnWfEfB7f-2" vertex="1">
                    &#xa;                    &#xa;&#xa;
                    <mxGeometry y="480" width="120" height="120" as="geometry"/>
                    &#xa;                    &#xa;&#xa;
                </mxCell>
                &#xa;                &#xa;&#xa;
                <mxCell id="d41SKahuUn7vnWfEfB7f-14" style="edgeStyle=orthogonalEdgeStyle;rounded=0;orthogonalLoop=1;jettySize=auto;html=1;" parent="d41SKahuUn7vnWfEfB7f-2" source="d41SKahuUn7vnWfEfB7f-15" target="d41SKahuUn7vnWfEfB7f-13" edge="1">
                    &#xa;                    &#xa;&#xa;
                    <mxGeometry relative="1" as="geometry"/>
                    &#xa;                    &#xa;&#xa;
                </mxCell>
                &#xa;                &#xa;&#xa;
                <mxCell id="d41SKahuUn7vnWfEfB7f-15" value="&lt;h1&gt;INSERT INTO EN APLICACIÓN WEB&lt;/h1&gt;&lt;p&gt;Se escribe una información detallando a quien le va a prestar la carpeta y también con el código de la carpeta.&amp;nbsp;&lt;/p&gt;" style="text;html=1;strokeColor=none;fillColor=none;spacing=5;spacingTop=-20;whiteSpace=wrap;overflow=hidden;rounded=0;" parent="d41SKahuUn7vnWfEfB7f-2" vertex="1">
                    &#xa;                    &#xa;&#xa;
                    <mxGeometry x="259" y="460" width="301" height="130" as="geometry"/>
                    &#xa;                    &#xa;&#xa;
                </mxCell>
                &#xa;                &#xa;&#xa;
                <mxCell id="d41SKahuUn7vnWfEfB7f-16" value="Tabla carpeta" style="whiteSpace=wrap;html=1;aspect=fixed;" parent="d41SKahuUn7vnWfEfB7f-2" vertex="1">
                    &#xa;                    &#xa;&#xa;
                    <mxGeometry x="260" y="650" width="140" height="140" as="geometry"/>
                    &#xa;                    &#xa;&#xa;
                </mxCell>
                &#xa;                &#xa;&#xa;
                <mxCell id="d41SKahuUn7vnWfEfB7f-17" style="edgeStyle=orthogonalEdgeStyle;rounded=0;orthogonalLoop=1;jettySize=auto;html=1;entryX=0.5;entryY=0;entryDx=0;entryDy=0;" parent="d41SKahuUn7vnWfEfB7f-2" source="d41SKahuUn7vnWfEfB7f-15" target="d41SKahuUn7vnWfEfB7f-16" edge="1">
                    &#xa;                    &#xa;&#xa;
                    <mxGeometry relative="1" as="geometry"/>
                    &#xa;                    &#xa;&#xa;
                </mxCell>
                &#xa;                &#xa;&#xa;
                <mxCell id="d41SKahuUn7vnWfEfB7f-18" value="&lt;h1&gt;TRIGGER AFTER INSERT EN LA TABLA PRESTAMO_CARPETA&lt;/h1&gt;&lt;p&gt;Se ejecuta un trigger indicando que el código del producto debe ser cambiado a ocupado.&lt;/p&gt;" style="text;html=1;strokeColor=none;fillColor=none;spacing=5;spacingTop=-20;whiteSpace=wrap;overflow=hidden;rounded=0;" parent="d41SKahuUn7vnWfEfB7f-2" vertex="1">
                    &#xa;                    &#xa;&#xa;
                    <mxGeometry x="420" y="650" width="320" height="140" as="geometry"/>
                    &#xa;                    &#xa;&#xa;
                </mxCell>
                &#xa;                &#xa;&#xa;
            </root>
            &#xa;            &#xa;&#xa;
        </mxGraphModel>
        &#xa;        &#xa;&#xa;
    </diagram>
    <diagram id="GUMkjy8FIV8QUsOiWWqM" name="Autorización de solicitud de carpeta">
        <mxGraphModel dx="610" dy="358" grid="1" gridSize="10" guides="1" tooltips="1" connect="1" arrows="1" fold="1" page="1" pageScale="1" pageWidth="827" pageHeight="1169" math="0" shadow="0">
            <root>
                <mxCell id="v2RUHhsvD4qeDqZy2szn-0"/>
                <mxCell id="v2RUHhsvD4qeDqZy2szn-1" parent="v2RUHhsvD4qeDqZy2szn-0"/>
                <mxCell id="v2RUHhsvD4qeDqZy2szn-2" style="edgeStyle=orthogonalEdgeStyle;rounded=0;orthogonalLoop=1;jettySize=auto;html=1;" parent="v2RUHhsvD4qeDqZy2szn-1" source="v2RUHhsvD4qeDqZy2szn-4" target="v2RUHhsvD4qeDqZy2szn-7" edge="1">
                    <mxGeometry relative="1" as="geometry">
                        <mxPoint x="300" y="165" as="targetPoint"/>
                    </mxGeometry>
                </mxCell>
                <mxCell id="v2RUHhsvD4qeDqZy2szn-3" style="edgeStyle=orthogonalEdgeStyle;rounded=0;orthogonalLoop=1;jettySize=auto;html=1;entryX=0;entryY=0.5;entryDx=0;entryDy=0;" parent="v2RUHhsvD4qeDqZy2szn-1" source="v2RUHhsvD4qeDqZy2szn-4" target="v2RUHhsvD4qeDqZy2szn-16" edge="1">
                    <mxGeometry relative="1" as="geometry"/>
                </mxCell>
                <mxCell id="v2RUHhsvD4qeDqZy2szn-4" value="" style="verticalLabelPosition=bottom;verticalAlign=top;html=1;shadow=0;dashed=0;strokeWidth=1;shape=mxgraph.android.contact_badge_normal;" parent="v2RUHhsvD4qeDqZy2szn-1" vertex="1">
                    <mxGeometry x="60" y="110" width="100" height="110" as="geometry"/>
                </mxCell>
                <mxCell id="v2RUHhsvD4qeDqZy2szn-5" value="USUARIO SOLICITA EL LIBRO" style="text;html=1;strokeColor=none;fillColor=none;align=center;verticalAlign=middle;whiteSpace=wrap;rounded=0;" parent="v2RUHhsvD4qeDqZy2szn-1" vertex="1">
                    <mxGeometry x="170" y="110" width="90" height="40" as="geometry"/>
                </mxCell>
                <mxCell id="v2RUHhsvD4qeDqZy2szn-6" style="edgeStyle=orthogonalEdgeStyle;rounded=0;orthogonalLoop=1;jettySize=auto;html=1;" parent="v2RUHhsvD4qeDqZy2szn-1" source="v2RUHhsvD4qeDqZy2szn-7" target="v2RUHhsvD4qeDqZy2szn-9" edge="1">
                    <mxGeometry relative="1" as="geometry">
                        <mxPoint x="460" y="165" as="targetPoint"/>
                    </mxGeometry>
                </mxCell>
                <mxCell id="v2RUHhsvD4qeDqZy2szn-7" value="con los datos del usuario. el código de la carpeta y la fecha de inicio y final" style="whiteSpace=wrap;html=1;aspect=fixed;" parent="v2RUHhsvD4qeDqZy2szn-1" vertex="1">
                    <mxGeometry x="280" y="125" width="80" height="80" as="geometry"/>
                </mxCell>
                <mxCell id="v2RUHhsvD4qeDqZy2szn-8" style="edgeStyle=orthogonalEdgeStyle;rounded=0;orthogonalLoop=1;jettySize=auto;html=1;" parent="v2RUHhsvD4qeDqZy2szn-1" source="v2RUHhsvD4qeDqZy2szn-9" target="v2RUHhsvD4qeDqZy2szn-12" edge="1">
                    <mxGeometry relative="1" as="geometry">
                        <mxPoint x="690" y="165" as="targetPoint"/>
                    </mxGeometry>
                </mxCell>
                <mxCell id="v2RUHhsvD4qeDqZy2szn-9" value="INFORMACIÓN ENVIADA A LA TABLA&amp;nbsp;" style="text;html=1;strokeColor=none;fillColor=none;align=center;verticalAlign=middle;whiteSpace=wrap;rounded=0;" parent="v2RUHhsvD4qeDqZy2szn-1" vertex="1">
                    <mxGeometry x="470" y="155" width="40" height="20" as="geometry"/>
                </mxCell>
                <mxCell id="v2RUHhsvD4qeDqZy2szn-10" style="edgeStyle=orthogonalEdgeStyle;rounded=0;orthogonalLoop=1;jettySize=auto;html=1;exitX=0.5;exitY=1;exitDx=0;exitDy=0;" parent="v2RUHhsvD4qeDqZy2szn-1" source="v2RUHhsvD4qeDqZy2szn-9" target="v2RUHhsvD4qeDqZy2szn-9" edge="1">
                    <mxGeometry relative="1" as="geometry"/>
                </mxCell>
                <mxCell id="v2RUHhsvD4qeDqZy2szn-11" style="edgeStyle=orthogonalEdgeStyle;rounded=0;orthogonalLoop=1;jettySize=auto;html=1;" parent="v2RUHhsvD4qeDqZy2szn-1" source="v2RUHhsvD4qeDqZy2szn-12" target="v2RUHhsvD4qeDqZy2szn-14" edge="1">
                    <mxGeometry relative="1" as="geometry">
                        <mxPoint x="650" y="370" as="targetPoint"/>
                    </mxGeometry>
                </mxCell>
                <mxCell id="v2RUHhsvD4qeDqZy2szn-12" value="USUARIO ADMIN VE LA INFORMACIÓN" style="text;html=1;strokeColor=none;fillColor=none;align=center;verticalAlign=middle;whiteSpace=wrap;rounded=0;" parent="v2RUHhsvD4qeDqZy2szn-1" vertex="1">
                    <mxGeometry x="720" y="155" width="40" height="20" as="geometry"/>
                </mxCell>
                <mxCell id="v2RUHhsvD4qeDqZy2szn-13" style="edgeStyle=orthogonalEdgeStyle;rounded=0;orthogonalLoop=1;jettySize=auto;html=1;" parent="v2RUHhsvD4qeDqZy2szn-1" source="v2RUHhsvD4qeDqZy2szn-14" target="v2RUHhsvD4qeDqZy2szn-21" edge="1">
                    <mxGeometry relative="1" as="geometry">
                        <mxPoint x="740" y="560" as="targetPoint"/>
                    </mxGeometry>
                </mxCell>
                <mxCell id="v2RUHhsvD4qeDqZy2szn-14" value="AUTORIZA EL PRESTAMO DEL LIBRO." style="text;html=1;strokeColor=none;fillColor=none;align=center;verticalAlign=middle;whiteSpace=wrap;rounded=0;" parent="v2RUHhsvD4qeDqZy2szn-1" vertex="1">
                    <mxGeometry x="720" y="370" width="40" height="20" as="geometry"/>
                </mxCell>
                <mxCell id="v2RUHhsvD4qeDqZy2szn-15" style="edgeStyle=orthogonalEdgeStyle;rounded=0;orthogonalLoop=1;jettySize=auto;html=1;" parent="v2RUHhsvD4qeDqZy2szn-1" source="v2RUHhsvD4qeDqZy2szn-16" edge="1">
                    <mxGeometry relative="1" as="geometry">
                        <mxPoint x="470" y="260" as="targetPoint"/>
                    </mxGeometry>
                </mxCell>
                <mxCell id="v2RUHhsvD4qeDqZy2szn-16" value="insert into prestamo_carpeta" style="text;html=1;strokeColor=none;fillColor=none;align=center;verticalAlign=middle;whiteSpace=wrap;rounded=0;" parent="v2RUHhsvD4qeDqZy2szn-1" vertex="1">
                    <mxGeometry x="240" y="250" width="40" height="20" as="geometry"/>
                </mxCell>
                <mxCell id="v2RUHhsvD4qeDqZy2szn-17" style="edgeStyle=orthogonalEdgeStyle;rounded=0;orthogonalLoop=1;jettySize=auto;html=1;" parent="v2RUHhsvD4qeDqZy2szn-1" source="v2RUHhsvD4qeDqZy2szn-18" edge="1">
                    <mxGeometry relative="1" as="geometry">
                        <mxPoint x="590" y="260" as="targetPoint"/>
                    </mxGeometry>
                </mxCell>
                <mxCell id="v2RUHhsvD4qeDqZy2szn-18" value="Se ve la información en la tabal" style="text;html=1;strokeColor=none;fillColor=none;align=center;verticalAlign=middle;whiteSpace=wrap;rounded=0;" parent="v2RUHhsvD4qeDqZy2szn-1" vertex="1">
                    <mxGeometry x="470" y="250" width="40" height="20" as="geometry"/>
                </mxCell>
                <mxCell id="v2RUHhsvD4qeDqZy2szn-19" style="edgeStyle=orthogonalEdgeStyle;rounded=0;orthogonalLoop=1;jettySize=auto;html=1;" parent="v2RUHhsvD4qeDqZy2szn-1" source="v2RUHhsvD4qeDqZy2szn-20" target="v2RUHhsvD4qeDqZy2szn-23" edge="1">
                    <mxGeometry relative="1" as="geometry">
                        <mxPoint x="630" y="550" as="targetPoint"/>
                    </mxGeometry>
                </mxCell>
                <mxCell id="v2RUHhsvD4qeDqZy2szn-20" value="Update carpetas estado carpeta = disponible a ocupado" style="text;html=1;strokeColor=none;fillColor=none;align=center;verticalAlign=middle;whiteSpace=wrap;rounded=0;" parent="v2RUHhsvD4qeDqZy2szn-1" vertex="1">
                    <mxGeometry x="610" y="250" width="40" height="20" as="geometry"/>
                </mxCell>
                <mxCell id="v2RUHhsvD4qeDqZy2szn-21" value="USUARIO SOLICITA EL LIBRO" style="shape=umlActor;verticalLabelPosition=bottom;verticalAlign=top;html=1;outlineConnect=0;" parent="v2RUHhsvD4qeDqZy2szn-1" vertex="1">
                    <mxGeometry x="725" y="530" width="30" height="60" as="geometry"/>
                </mxCell>
                <mxCell id="v2RUHhsvD4qeDqZy2szn-22" value="" style="edgeStyle=orthogonalEdgeStyle;rounded=0;orthogonalLoop=1;jettySize=auto;html=1;" parent="v2RUHhsvD4qeDqZy2szn-1" source="v2RUHhsvD4qeDqZy2szn-23" target="v2RUHhsvD4qeDqZy2szn-21" edge="1">
                    <mxGeometry relative="1" as="geometry"/>
                </mxCell>
                <mxCell id="v2RUHhsvD4qeDqZy2szn-23" value="SELECT * FROM PRESTAMO_CARPETA WHERE pc_id_usuario = $user[id_usu];" style="text;html=1;strokeColor=none;fillColor=none;align=center;verticalAlign=middle;whiteSpace=wrap;rounded=0;" parent="v2RUHhsvD4qeDqZy2szn-1" vertex="1">
                    <mxGeometry x="530" y="560" width="40" height="20" as="geometry"/>
                </mxCell>
                <mxCell id="v2RUHhsvD4qeDqZy2szn-24" style="edgeStyle=orthogonalEdgeStyle;rounded=0;orthogonalLoop=1;jettySize=auto;html=1;exitX=0.5;exitY=1;exitDx=0;exitDy=0;" parent="v2RUHhsvD4qeDqZy2szn-1" source="v2RUHhsvD4qeDqZy2szn-23" target="v2RUHhsvD4qeDqZy2szn-23" edge="1">
                    <mxGeometry relative="1" as="geometry"/>
                </mxCell>
            </root>
        </mxGraphModel>
    </diagram>
    <diagram id="Zebt11gXyasa7f2_IcwU" name="Historial_modificaciones">
        <mxGraphModel dx="1545" dy="421" grid="1" gridSize="10" guides="1" tooltips="1" connect="1" arrows="1" fold="1" page="1" pageScale="1" pageWidth="827" pageHeight="1169" math="0" shadow="0">
            <root>
                <mxCell id="HIHwOZyWquZLuRu0AlEc-0"/>
                <mxCell id="HIHwOZyWquZLuRu0AlEc-1" parent="HIHwOZyWquZLuRu0AlEc-0"/>
                <mxCell id="HIHwOZyWquZLuRu0AlEc-5" value="" style="edgeStyle=orthogonalEdgeStyle;curved=0;rounded=1;sketch=0;orthogonalLoop=1;jettySize=auto;html=1;strokeColor=#457B9D;fillColor=#A8DADC;fontColor=#1D3557;" parent="HIHwOZyWquZLuRu0AlEc-1" source="HIHwOZyWquZLuRu0AlEc-2" target="HIHwOZyWquZLuRu0AlEc-4" edge="1">
                    <mxGeometry relative="1" as="geometry"/>
                </mxCell>
                <mxCell id="HIHwOZyWquZLuRu0AlEc-2" value="INICIO" style="html=1;dashed=0;whitespace=wrap;shape=mxgraph.dfd.start;rounded=0;sketch=0;strokeColor=#457B9D;fillColor=#A8DADC;fontColor=#1D3557;" parent="HIHwOZyWquZLuRu0AlEc-1" vertex="1">
                    <mxGeometry x="170" y="40" width="80" height="30" as="geometry"/>
                </mxCell>
                <mxCell id="HIHwOZyWquZLuRu0AlEc-7" value="" style="edgeStyle=orthogonalEdgeStyle;curved=0;rounded=1;sketch=0;orthogonalLoop=1;jettySize=auto;html=1;strokeColor=#457B9D;fillColor=#A8DADC;fontColor=#1D3557;" parent="HIHwOZyWquZLuRu0AlEc-1" source="HIHwOZyWquZLuRu0AlEc-4" target="HIHwOZyWquZLuRu0AlEc-6" edge="1">
                    <mxGeometry relative="1" as="geometry"/>
                </mxCell>
                <mxCell id="HIHwOZyWquZLuRu0AlEc-4" value="Autoriza modificación" style="html=1;dashed=0;whitespace=wrap;rounded=0;sketch=0;strokeColor=#457B9D;fillColor=#A8DADC;fontColor=#1D3557;" parent="HIHwOZyWquZLuRu0AlEc-1" vertex="1">
                    <mxGeometry x="140" y="120" width="140" height="70" as="geometry"/>
                </mxCell>
                <mxCell id="HIHwOZyWquZLuRu0AlEc-20" style="edgeStyle=orthogonalEdgeStyle;curved=0;rounded=1;sketch=0;orthogonalLoop=1;jettySize=auto;html=1;entryX=0.643;entryY=0.01;entryDx=0;entryDy=0;entryPerimeter=0;strokeColor=#457B9D;fillColor=#A8DADC;fontColor=#1D3557;" parent="HIHwOZyWquZLuRu0AlEc-1" source="HIHwOZyWquZLuRu0AlEc-6" target="HIHwOZyWquZLuRu0AlEc-19" edge="1">
                    <mxGeometry relative="1" as="geometry"/>
                </mxCell>
                <mxCell id="HIHwOZyWquZLuRu0AlEc-22" style="edgeStyle=orthogonalEdgeStyle;curved=0;rounded=1;sketch=0;orthogonalLoop=1;jettySize=auto;html=1;entryX=0.25;entryY=0;entryDx=0;entryDy=0;strokeColor=#457B9D;fillColor=#A8DADC;fontColor=#1D3557;" parent="HIHwOZyWquZLuRu0AlEc-1" source="HIHwOZyWquZLuRu0AlEc-6" target="HIHwOZyWquZLuRu0AlEc-18" edge="1">
                    <mxGeometry relative="1" as="geometry"/>
                </mxCell>
                <mxCell id="HIHwOZyWquZLuRu0AlEc-6" value="¿Se autoriza la modificación?" style="shape=rhombus;html=1;dashed=0;whitespace=wrap;perimeter=rhombusPerimeter;rounded=0;sketch=0;strokeColor=#457B9D;fillColor=#A8DADC;fontColor=#1D3557;" parent="HIHwOZyWquZLuRu0AlEc-1" vertex="1">
                    <mxGeometry x="132" y="260" width="156" height="130" as="geometry"/>
                </mxCell>
                <mxCell id="HIHwOZyWquZLuRu0AlEc-10" value="AUTORIZAR" style="text;html=1;strokeColor=#BD7000;fillColor=#f0a30a;align=center;verticalAlign=middle;whiteSpace=wrap;rounded=0;sketch=0;fontColor=#ffffff;" parent="HIHwOZyWquZLuRu0AlEc-1" vertex="1">
                    <mxGeometry x="20" y="280" width="70" height="20" as="geometry"/>
                </mxCell>
                <mxCell id="HIHwOZyWquZLuRu0AlEc-13" value="RECHAZAR" style="text;html=1;strokeColor=#BD7000;fillColor=#f0a30a;align=center;verticalAlign=middle;whiteSpace=wrap;rounded=0;sketch=0;fontColor=#ffffff;" parent="HIHwOZyWquZLuRu0AlEc-1" vertex="1">
                    <mxGeometry x="330" y="280" width="70" height="20" as="geometry"/>
                </mxCell>
                <mxCell id="HIHwOZyWquZLuRu0AlEc-26" style="edgeStyle=orthogonalEdgeStyle;curved=0;rounded=1;sketch=0;orthogonalLoop=1;jettySize=auto;html=1;strokeColor=#457B9D;fillColor=#A8DADC;fontColor=#1D3557;" parent="HIHwOZyWquZLuRu0AlEc-1" source="HIHwOZyWquZLuRu0AlEc-17" target="HIHwOZyWquZLuRu0AlEc-23" edge="1">
                    <mxGeometry relative="1" as="geometry"/>
                </mxCell>
                <mxCell id="HIHwOZyWquZLuRu0AlEc-17" value="HISTORIAL GUARDADO EN LA TABLA" style="shape=parallelogram;perimeter=parallelogramPerimeter;whiteSpace=wrap;html=1;dashed=0;rounded=0;sketch=0;strokeColor=#457B9D;fillColor=#A8DADC;fontColor=#1D3557;" parent="HIHwOZyWquZLuRu0AlEc-1" vertex="1">
                    <mxGeometry x="160" y="540" width="100" height="50" as="geometry"/>
                </mxCell>
                <mxCell id="HIHwOZyWquZLuRu0AlEc-24" style="edgeStyle=orthogonalEdgeStyle;curved=0;rounded=1;sketch=0;orthogonalLoop=1;jettySize=auto;html=1;entryX=0.25;entryY=0;entryDx=0;entryDy=0;strokeColor=#457B9D;fillColor=#A8DADC;fontColor=#1D3557;" parent="HIHwOZyWquZLuRu0AlEc-1" source="HIHwOZyWquZLuRu0AlEc-18" target="HIHwOZyWquZLuRu0AlEc-17" edge="1">
                    <mxGeometry relative="1" as="geometry"/>
                </mxCell>
                <mxCell id="HIHwOZyWquZLuRu0AlEc-18" value="Guardar información" style="html=1;dashed=0;whitespace=wrap;rounded=0;sketch=0;strokeColor=#457B9D;fillColor=#A8DADC;fontColor=#1D3557;" parent="HIHwOZyWquZLuRu0AlEc-1" vertex="1">
                    <mxGeometry x="-30" y="400" width="150" height="80" as="geometry"/>
                </mxCell>
                <mxCell id="HIHwOZyWquZLuRu0AlEc-25" style="edgeStyle=orthogonalEdgeStyle;curved=0;rounded=1;sketch=0;orthogonalLoop=1;jettySize=auto;html=1;entryX=1;entryY=0;entryDx=0;entryDy=0;strokeColor=#457B9D;fillColor=#A8DADC;fontColor=#1D3557;" parent="HIHwOZyWquZLuRu0AlEc-1" source="HIHwOZyWquZLuRu0AlEc-19" target="HIHwOZyWquZLuRu0AlEc-17" edge="1">
                    <mxGeometry relative="1" as="geometry"/>
                </mxCell>
                <mxCell id="HIHwOZyWquZLuRu0AlEc-19" value="Guardar información establecida" style="html=1;dashed=0;whitespace=wrap;rounded=0;sketch=0;strokeColor=#457B9D;fillColor=#A8DADC;fontColor=#1D3557;" parent="HIHwOZyWquZLuRu0AlEc-1" vertex="1">
                    <mxGeometry x="290" y="400" width="170" height="80" as="geometry"/>
                </mxCell>
                <mxCell id="HIHwOZyWquZLuRu0AlEc-23" value="FIN" style="html=1;dashed=0;whitespace=wrap;shape=mxgraph.dfd.start;rounded=0;sketch=0;strokeColor=#457B9D;fillColor=#A8DADC;fontColor=#1D3557;" parent="HIHwOZyWquZLuRu0AlEc-1" vertex="1">
                    <mxGeometry x="170" y="690" width="80" height="30" as="geometry"/>
                </mxCell>
                <mxCell id="HIHwOZyWquZLuRu0AlEc-27" value="&lt;font style=&quot;font-size: 36px&quot;&gt;TABLAS SQL&lt;/font&gt;" style="text;html=1;strokeColor=none;fillColor=none;align=center;verticalAlign=middle;whiteSpace=wrap;rounded=0;sketch=0;fontColor=#1D3557;" parent="HIHwOZyWquZLuRu0AlEc-1" vertex="1">
                    <mxGeometry x="280" y="800" width="180" height="90" as="geometry"/>
                </mxCell>
                <mxCell id="STkLzgnIQiYQtDQ0meXJ-18" value="" style="group" parent="HIHwOZyWquZLuRu0AlEc-1" vertex="1" connectable="0">
                    <mxGeometry x="275" y="930" width="235" height="240" as="geometry"/>
                </mxCell>
                <mxCell id="STkLzgnIQiYQtDQ0meXJ-0" value="HISTORIAL_MODIFICACION" style="shape=table;startSize=30;container=1;collapsible=1;childLayout=tableLayout;fixedRows=1;rowLines=0;fontStyle=1;align=center;resizeLast=1;" parent="STkLzgnIQiYQtDQ0meXJ-18" vertex="1">
                    <mxGeometry width="235" height="180" as="geometry">
                        <mxRectangle width="190" height="30" as="alternateBounds"/>
                    </mxGeometry>
                </mxCell>
                <mxCell id="STkLzgnIQiYQtDQ0meXJ-1" value="" style="shape=partialRectangle;collapsible=0;dropTarget=0;pointerEvents=0;fillColor=none;top=0;left=0;bottom=1;right=0;points=[[0,0.5],[1,0.5]];portConstraint=eastwest;" parent="STkLzgnIQiYQtDQ0meXJ-0" vertex="1">
                    <mxGeometry y="30" width="235" height="30" as="geometry"/>
                </mxCell>
                <mxCell id="STkLzgnIQiYQtDQ0meXJ-2" value="PK" style="shape=partialRectangle;connectable=0;fillColor=none;top=0;left=0;bottom=0;right=0;fontStyle=1;overflow=hidden;" parent="STkLzgnIQiYQtDQ0meXJ-1" vertex="1">
                    <mxGeometry width="30" height="30" as="geometry"/>
                </mxCell>
                <mxCell id="STkLzgnIQiYQtDQ0meXJ-3" value="ID_AUTO_INCREMENT" style="shape=partialRectangle;connectable=0;fillColor=none;top=0;left=0;bottom=0;right=0;align=left;spacingLeft=6;fontStyle=5;overflow=hidden;" parent="STkLzgnIQiYQtDQ0meXJ-1" vertex="1">
                    <mxGeometry x="30" width="205" height="30" as="geometry"/>
                </mxCell>
                <mxCell id="STkLzgnIQiYQtDQ0meXJ-4" value="" style="shape=partialRectangle;collapsible=0;dropTarget=0;pointerEvents=0;fillColor=none;top=0;left=0;bottom=0;right=0;points=[[0,0.5],[1,0.5]];portConstraint=eastwest;" parent="STkLzgnIQiYQtDQ0meXJ-0" vertex="1">
                    <mxGeometry y="60" width="235" height="30" as="geometry"/>
                </mxCell>
                <mxCell id="STkLzgnIQiYQtDQ0meXJ-5" value="" style="shape=partialRectangle;connectable=0;fillColor=none;top=0;left=0;bottom=0;right=0;editable=1;overflow=hidden;" parent="STkLzgnIQiYQtDQ0meXJ-4" vertex="1">
                    <mxGeometry width="30" height="30" as="geometry"/>
                </mxCell>
                <mxCell id="STkLzgnIQiYQtDQ0meXJ-6" value="Usuario INT(20)" style="shape=partialRectangle;connectable=0;fillColor=none;top=0;left=0;bottom=0;right=0;align=left;spacingLeft=6;overflow=hidden;" parent="STkLzgnIQiYQtDQ0meXJ-4" vertex="1">
                    <mxGeometry x="30" width="205" height="30" as="geometry"/>
                </mxCell>
                <mxCell id="STkLzgnIQiYQtDQ0meXJ-7" value="" style="shape=partialRectangle;collapsible=0;dropTarget=0;pointerEvents=0;fillColor=none;top=0;left=0;bottom=0;right=0;points=[[0,0.5],[1,0.5]];portConstraint=eastwest;" parent="STkLzgnIQiYQtDQ0meXJ-0" vertex="1">
                    <mxGeometry y="90" width="235" height="30" as="geometry"/>
                </mxCell>
                <mxCell id="STkLzgnIQiYQtDQ0meXJ-8" value="" style="shape=partialRectangle;connectable=0;fillColor=none;top=0;left=0;bottom=0;right=0;editable=1;overflow=hidden;" parent="STkLzgnIQiYQtDQ0meXJ-7" vertex="1">
                    <mxGeometry width="30" height="30" as="geometry"/>
                </mxCell>
                <mxCell id="STkLzgnIQiYQtDQ0meXJ-9" value="Codigo carpeta INT(20)" style="shape=partialRectangle;connectable=0;fillColor=none;top=0;left=0;bottom=0;right=0;align=left;spacingLeft=6;overflow=hidden;" parent="STkLzgnIQiYQtDQ0meXJ-7" vertex="1">
                    <mxGeometry x="30" width="205" height="30" as="geometry"/>
                </mxCell>
                <mxCell id="STkLzgnIQiYQtDQ0meXJ-10" value="" style="shape=partialRectangle;collapsible=0;dropTarget=0;pointerEvents=0;fillColor=none;top=0;left=0;bottom=0;right=0;points=[[0,0.5],[1,0.5]];portConstraint=eastwest;" parent="STkLzgnIQiYQtDQ0meXJ-0" vertex="1">
                    <mxGeometry y="120" width="235" height="30" as="geometry"/>
                </mxCell>
                <mxCell id="STkLzgnIQiYQtDQ0meXJ-11" value="" style="shape=partialRectangle;connectable=0;fillColor=none;top=0;left=0;bottom=0;right=0;editable=1;overflow=hidden;" parent="STkLzgnIQiYQtDQ0meXJ-10" vertex="1">
                    <mxGeometry width="30" height="30" as="geometry"/>
                </mxCell>
                <mxCell id="STkLzgnIQiYQtDQ0meXJ-12" value="Fecha modificacion DATETIME" style="shape=partialRectangle;connectable=0;fillColor=none;top=0;left=0;bottom=0;right=0;align=left;spacingLeft=6;overflow=hidden;" parent="STkLzgnIQiYQtDQ0meXJ-10" vertex="1">
                    <mxGeometry x="30" width="205" height="30" as="geometry"/>
                </mxCell>
                <mxCell id="STkLzgnIQiYQtDQ0meXJ-20" value="" style="shape=partialRectangle;collapsible=0;dropTarget=0;pointerEvents=0;fillColor=none;top=0;left=0;bottom=0;right=0;points=[[0,0.5],[1,0.5]];portConstraint=eastwest;" parent="STkLzgnIQiYQtDQ0meXJ-0" vertex="1">
                    <mxGeometry y="150" width="235" height="30" as="geometry"/>
                </mxCell>
                <mxCell id="STkLzgnIQiYQtDQ0meXJ-21" value="" style="shape=partialRectangle;connectable=0;fillColor=none;top=0;left=0;bottom=0;right=0;editable=1;overflow=hidden;" parent="STkLzgnIQiYQtDQ0meXJ-20" vertex="1">
                    <mxGeometry width="30" height="30" as="geometry"/>
                </mxCell>
                <mxCell id="STkLzgnIQiYQtDQ0meXJ-22" value="Estado modificado VARCHAR(100)" style="shape=partialRectangle;connectable=0;fillColor=none;top=0;left=0;bottom=0;right=0;align=left;spacingLeft=6;overflow=hidden;" parent="STkLzgnIQiYQtDQ0meXJ-20" vertex="1">
                    <mxGeometry x="30" width="205" height="30" as="geometry"/>
                </mxCell>
                <mxCell id="STkLzgnIQiYQtDQ0meXJ-23" value="CARPETAS" style="shape=table;startSize=30;container=1;collapsible=1;childLayout=tableLayout;fixedRows=1;rowLines=0;fontStyle=1;align=center;resizeLast=1;" parent="HIHwOZyWquZLuRu0AlEc-1" vertex="1">
                    <mxGeometry x="600" y="930" width="180" height="190" as="geometry">
                        <mxRectangle x="600" y="930" width="100" height="30" as="alternateBounds"/>
                    </mxGeometry>
                </mxCell>
                <mxCell id="STkLzgnIQiYQtDQ0meXJ-24" value="" style="shape=partialRectangle;collapsible=0;dropTarget=0;pointerEvents=0;fillColor=none;top=0;left=0;bottom=1;right=0;points=[[0,0.5],[1,0.5]];portConstraint=eastwest;" parent="STkLzgnIQiYQtDQ0meXJ-23" vertex="1">
                    <mxGeometry y="30" width="180" height="30" as="geometry"/>
                </mxCell>
                <mxCell id="STkLzgnIQiYQtDQ0meXJ-25" value="PK" style="shape=partialRectangle;connectable=0;fillColor=none;top=0;left=0;bottom=0;right=0;fontStyle=1;overflow=hidden;" parent="STkLzgnIQiYQtDQ0meXJ-24" vertex="1">
                    <mxGeometry width="30" height="30" as="geometry"/>
                </mxCell>
                <mxCell id="STkLzgnIQiYQtDQ0meXJ-26" value="CÓDIGO_CARPETA " style="shape=partialRectangle;connectable=0;fillColor=none;top=0;left=0;bottom=0;right=0;align=left;spacingLeft=6;fontStyle=5;overflow=hidden;" parent="STkLzgnIQiYQtDQ0meXJ-24" vertex="1">
                    <mxGeometry x="30" width="150" height="30" as="geometry"/>
                </mxCell>
                <mxCell id="STkLzgnIQiYQtDQ0meXJ-27" value="" style="shape=partialRectangle;collapsible=0;dropTarget=0;pointerEvents=0;fillColor=none;top=0;left=0;bottom=0;right=0;points=[[0,0.5],[1,0.5]];portConstraint=eastwest;" parent="STkLzgnIQiYQtDQ0meXJ-23" vertex="1">
                    <mxGeometry y="60" width="180" height="30" as="geometry"/>
                </mxCell>
                <mxCell id="STkLzgnIQiYQtDQ0meXJ-28" value="" style="shape=partialRectangle;connectable=0;fillColor=none;top=0;left=0;bottom=0;right=0;editable=1;overflow=hidden;" parent="STkLzgnIQiYQtDQ0meXJ-27" vertex="1">
                    <mxGeometry width="30" height="30" as="geometry"/>
                </mxCell>
                <mxCell id="STkLzgnIQiYQtDQ0meXJ-29" value="Nombre_carpeta" style="shape=partialRectangle;connectable=0;fillColor=none;top=0;left=0;bottom=0;right=0;align=left;spacingLeft=6;overflow=hidden;" parent="STkLzgnIQiYQtDQ0meXJ-27" vertex="1">
                    <mxGeometry x="30" width="150" height="30" as="geometry"/>
                </mxCell>
                <mxCell id="STkLzgnIQiYQtDQ0meXJ-30" value="" style="shape=partialRectangle;collapsible=0;dropTarget=0;pointerEvents=0;fillColor=none;top=0;left=0;bottom=0;right=0;points=[[0,0.5],[1,0.5]];portConstraint=eastwest;" parent="STkLzgnIQiYQtDQ0meXJ-23" vertex="1">
                    <mxGeometry y="90" width="180" height="30" as="geometry"/>
                </mxCell>
                <mxCell id="STkLzgnIQiYQtDQ0meXJ-31" value="" style="shape=partialRectangle;connectable=0;fillColor=none;top=0;left=0;bottom=0;right=0;editable=1;overflow=hidden;" parent="STkLzgnIQiYQtDQ0meXJ-30" vertex="1">
                    <mxGeometry width="30" height="30" as="geometry"/>
                </mxCell>
                <mxCell id="STkLzgnIQiYQtDQ0meXJ-32" value="Cantidad_Folios" style="shape=partialRectangle;connectable=0;fillColor=none;top=0;left=0;bottom=0;right=0;align=left;spacingLeft=6;overflow=hidden;" parent="STkLzgnIQiYQtDQ0meXJ-30" vertex="1">
                    <mxGeometry x="30" width="150" height="30" as="geometry"/>
                </mxCell>
                <mxCell id="STkLzgnIQiYQtDQ0meXJ-33" value="" style="shape=partialRectangle;collapsible=0;dropTarget=0;pointerEvents=0;fillColor=none;top=0;left=0;bottom=0;right=0;points=[[0,0.5],[1,0.5]];portConstraint=eastwest;" parent="STkLzgnIQiYQtDQ0meXJ-23" vertex="1">
                    <mxGeometry y="120" width="180" height="30" as="geometry"/>
                </mxCell>
                <mxCell id="STkLzgnIQiYQtDQ0meXJ-34" value="" style="shape=partialRectangle;connectable=0;fillColor=none;top=0;left=0;bottom=0;right=0;editable=1;overflow=hidden;" parent="STkLzgnIQiYQtDQ0meXJ-33" vertex="1">
                    <mxGeometry width="30" height="30" as="geometry"/>
                </mxCell>
                <mxCell id="STkLzgnIQiYQtDQ0meXJ-35" value="Tipo_Carpeta" style="shape=partialRectangle;connectable=0;fillColor=none;top=0;left=0;bottom=0;right=0;align=left;spacingLeft=6;overflow=hidden;" parent="STkLzgnIQiYQtDQ0meXJ-33" vertex="1">
                    <mxGeometry x="30" width="150" height="30" as="geometry"/>
                </mxCell>
                <mxCell id="STkLzgnIQiYQtDQ0meXJ-36" value="" style="shape=partialRectangle;collapsible=0;dropTarget=0;pointerEvents=0;fillColor=none;top=0;left=0;bottom=0;right=0;points=[[0,0.5],[1,0.5]];portConstraint=eastwest;" parent="STkLzgnIQiYQtDQ0meXJ-23" vertex="1">
                    <mxGeometry y="150" width="180" height="30" as="geometry"/>
                </mxCell>
                <mxCell id="STkLzgnIQiYQtDQ0meXJ-37" value="" style="shape=partialRectangle;connectable=0;fillColor=none;top=0;left=0;bottom=0;right=0;editable=1;overflow=hidden;" parent="STkLzgnIQiYQtDQ0meXJ-36" vertex="1">
                    <mxGeometry width="30" height="30" as="geometry"/>
                </mxCell>
                <mxCell id="STkLzgnIQiYQtDQ0meXJ-38" value="Estado_carpeta" style="shape=partialRectangle;connectable=0;fillColor=none;top=0;left=0;bottom=0;right=0;align=left;spacingLeft=6;overflow=hidden;" parent="STkLzgnIQiYQtDQ0meXJ-36" vertex="1">
                    <mxGeometry x="30" width="150" height="30" as="geometry"/>
                </mxCell>
                <mxCell id="STkLzgnIQiYQtDQ0meXJ-39" value="" style="endArrow=none;html=1;rounded=0;exitX=1.001;exitY=0.338;exitDx=0;exitDy=0;exitPerimeter=0;" parent="HIHwOZyWquZLuRu0AlEc-1" source="STkLzgnIQiYQtDQ0meXJ-7" target="STkLzgnIQiYQtDQ0meXJ-24" edge="1">
                    <mxGeometry relative="1" as="geometry">
                        <mxPoint x="440" y="1040" as="sourcePoint"/>
                        <mxPoint x="610" y="1050" as="targetPoint"/>
                    </mxGeometry>
                </mxCell>
                <mxCell id="STkLzgnIQiYQtDQ0meXJ-40" value="USUARIO" style="shape=table;startSize=30;container=1;collapsible=1;childLayout=tableLayout;fixedRows=1;rowLines=0;fontStyle=1;align=center;resizeLast=1;" parent="HIHwOZyWquZLuRu0AlEc-1" vertex="1">
                    <mxGeometry x="40" y="930" width="180" height="160" as="geometry"/>
                </mxCell>
                <mxCell id="STkLzgnIQiYQtDQ0meXJ-41" value="" style="shape=partialRectangle;collapsible=0;dropTarget=0;pointerEvents=0;fillColor=none;top=0;left=0;bottom=1;right=0;points=[[0,0.5],[1,0.5]];portConstraint=eastwest;" parent="STkLzgnIQiYQtDQ0meXJ-40" vertex="1">
                    <mxGeometry y="30" width="180" height="30" as="geometry"/>
                </mxCell>
                <mxCell id="STkLzgnIQiYQtDQ0meXJ-42" value="PK" style="shape=partialRectangle;connectable=0;fillColor=none;top=0;left=0;bottom=0;right=0;fontStyle=1;overflow=hidden;" parent="STkLzgnIQiYQtDQ0meXJ-41" vertex="1">
                    <mxGeometry width="30" height="30" as="geometry"/>
                </mxCell>
                <mxCell id="STkLzgnIQiYQtDQ0meXJ-43" value="CEDULA" style="shape=partialRectangle;connectable=0;fillColor=none;top=0;left=0;bottom=0;right=0;align=left;spacingLeft=6;fontStyle=5;overflow=hidden;" parent="STkLzgnIQiYQtDQ0meXJ-41" vertex="1">
                    <mxGeometry x="30" width="150" height="30" as="geometry"/>
                </mxCell>
                <mxCell id="STkLzgnIQiYQtDQ0meXJ-44" value="" style="shape=partialRectangle;collapsible=0;dropTarget=0;pointerEvents=0;fillColor=none;top=0;left=0;bottom=0;right=0;points=[[0,0.5],[1,0.5]];portConstraint=eastwest;" parent="STkLzgnIQiYQtDQ0meXJ-40" vertex="1">
                    <mxGeometry y="60" width="180" height="30" as="geometry"/>
                </mxCell>
                <mxCell id="STkLzgnIQiYQtDQ0meXJ-45" value="" style="shape=partialRectangle;connectable=0;fillColor=none;top=0;left=0;bottom=0;right=0;editable=1;overflow=hidden;" parent="STkLzgnIQiYQtDQ0meXJ-44" vertex="1">
                    <mxGeometry width="30" height="30" as="geometry"/>
                </mxCell>
                <mxCell id="STkLzgnIQiYQtDQ0meXJ-46" value="NOMBRE" style="shape=partialRectangle;connectable=0;fillColor=none;top=0;left=0;bottom=0;right=0;align=left;spacingLeft=6;overflow=hidden;" parent="STkLzgnIQiYQtDQ0meXJ-44" vertex="1">
                    <mxGeometry x="30" width="150" height="30" as="geometry"/>
                </mxCell>
                <mxCell id="STkLzgnIQiYQtDQ0meXJ-47" value="" style="shape=partialRectangle;collapsible=0;dropTarget=0;pointerEvents=0;fillColor=none;top=0;left=0;bottom=0;right=0;points=[[0,0.5],[1,0.5]];portConstraint=eastwest;" parent="STkLzgnIQiYQtDQ0meXJ-40" vertex="1">
                    <mxGeometry y="90" width="180" height="30" as="geometry"/>
                </mxCell>
                <mxCell id="STkLzgnIQiYQtDQ0meXJ-48" value="" style="shape=partialRectangle;connectable=0;fillColor=none;top=0;left=0;bottom=0;right=0;editable=1;overflow=hidden;" parent="STkLzgnIQiYQtDQ0meXJ-47" vertex="1">
                    <mxGeometry width="30" height="30" as="geometry"/>
                </mxCell>
                <mxCell id="STkLzgnIQiYQtDQ0meXJ-49" value="EMAIL" style="shape=partialRectangle;connectable=0;fillColor=none;top=0;left=0;bottom=0;right=0;align=left;spacingLeft=6;overflow=hidden;" parent="STkLzgnIQiYQtDQ0meXJ-47" vertex="1">
                    <mxGeometry x="30" width="150" height="30" as="geometry"/>
                </mxCell>
                <mxCell id="STkLzgnIQiYQtDQ0meXJ-50" value="" style="shape=partialRectangle;collapsible=0;dropTarget=0;pointerEvents=0;fillColor=none;top=0;left=0;bottom=0;right=0;points=[[0,0.5],[1,0.5]];portConstraint=eastwest;" parent="STkLzgnIQiYQtDQ0meXJ-40" vertex="1">
                    <mxGeometry y="120" width="180" height="30" as="geometry"/>
                </mxCell>
                <mxCell id="STkLzgnIQiYQtDQ0meXJ-51" value="" style="shape=partialRectangle;connectable=0;fillColor=none;top=0;left=0;bottom=0;right=0;editable=1;overflow=hidden;" parent="STkLzgnIQiYQtDQ0meXJ-50" vertex="1">
                    <mxGeometry width="30" height="30" as="geometry"/>
                </mxCell>
                <mxCell id="STkLzgnIQiYQtDQ0meXJ-52" value="CLAVE" style="shape=partialRectangle;connectable=0;fillColor=none;top=0;left=0;bottom=0;right=0;align=left;spacingLeft=6;overflow=hidden;" parent="STkLzgnIQiYQtDQ0meXJ-50" vertex="1">
                    <mxGeometry x="30" width="150" height="30" as="geometry"/>
                </mxCell>
                <mxCell id="STkLzgnIQiYQtDQ0meXJ-53" value="" style="endArrow=none;html=1;rounded=0;entryX=1;entryY=0.5;entryDx=0;entryDy=0;" parent="HIHwOZyWquZLuRu0AlEc-1" source="STkLzgnIQiYQtDQ0meXJ-4" target="STkLzgnIQiYQtDQ0meXJ-41" edge="1">
                    <mxGeometry relative="1" as="geometry">
                        <mxPoint x="410" y="970" as="sourcePoint"/>
                        <mxPoint x="220" y="900" as="targetPoint"/>
                    </mxGeometry>
                </mxCell>
                <mxCell id="k7XeWjpXcBxLPWtF9ROu-7" style="edgeStyle=orthogonalEdgeStyle;rounded=0;orthogonalLoop=1;jettySize=auto;html=1;" edge="1" parent="HIHwOZyWquZLuRu0AlEc-1" source="k7XeWjpXcBxLPWtF9ROu-0" target="k7XeWjpXcBxLPWtF9ROu-3">
                    <mxGeometry relative="1" as="geometry"/>
                </mxCell>
                <mxCell id="k7XeWjpXcBxLPWtF9ROu-0" value="ADMIN" style="shape=umlActor;verticalLabelPosition=bottom;verticalAlign=top;html=1;outlineConnect=0;" vertex="1" parent="HIHwOZyWquZLuRu0AlEc-1">
                    <mxGeometry x="20" y="1360" width="30" height="60" as="geometry"/>
                </mxCell>
                <mxCell id="k7XeWjpXcBxLPWtF9ROu-10" style="edgeStyle=orthogonalEdgeStyle;rounded=0;orthogonalLoop=1;jettySize=auto;html=1;entryX=0.5;entryY=0;entryDx=0;entryDy=0;" edge="1" parent="HIHwOZyWquZLuRu0AlEc-1" source="k7XeWjpXcBxLPWtF9ROu-2" target="k7XeWjpXcBxLPWtF9ROu-8">
                    <mxGeometry relative="1" as="geometry"/>
                </mxCell>
                <mxCell id="k7XeWjpXcBxLPWtF9ROu-2" value="&lt;h1&gt;AUTORIZAR/RECHAZAR&lt;/h1&gt;&lt;p&gt;Cuando el usuario eliga alguna de estas 2 situaciones se realizará una inserción de datos en la tabla historial de modificaciones. Esto con el fin de saber quien y que realizo la autorización&lt;/p&gt;&lt;p&gt;&lt;br&gt;&lt;/p&gt;" style="text;html=1;strokeColor=none;fillColor=none;spacing=5;spacingTop=-20;whiteSpace=wrap;overflow=hidden;rounded=0;" vertex="1" parent="HIHwOZyWquZLuRu0AlEc-1">
                    <mxGeometry x="20" y="1220" width="332.5" height="110" as="geometry"/>
                </mxCell>
                <mxCell id="k7XeWjpXcBxLPWtF9ROu-9" style="edgeStyle=orthogonalEdgeStyle;rounded=0;orthogonalLoop=1;jettySize=auto;html=1;" edge="1" parent="HIHwOZyWquZLuRu0AlEc-1" source="k7XeWjpXcBxLPWtF9ROu-3" target="k7XeWjpXcBxLPWtF9ROu-8">
                    <mxGeometry relative="1" as="geometry"/>
                </mxCell>
                <mxCell id="k7XeWjpXcBxLPWtF9ROu-3" value="SE ENVIA DATOS A SERVIDOR" style="whiteSpace=wrap;html=1;aspect=fixed;" vertex="1" parent="HIHwOZyWquZLuRu0AlEc-1">
                    <mxGeometry x="200" y="1360" width="80" height="80" as="geometry"/>
                </mxCell>
                <mxCell id="k7XeWjpXcBxLPWtF9ROu-12" style="edgeStyle=orthogonalEdgeStyle;rounded=0;orthogonalLoop=1;jettySize=auto;html=1;" edge="1" parent="HIHwOZyWquZLuRu0AlEc-1" source="k7XeWjpXcBxLPWtF9ROu-8" target="k7XeWjpXcBxLPWtF9ROu-11">
                    <mxGeometry relative="1" as="geometry"/>
                </mxCell>
                <mxCell id="k7XeWjpXcBxLPWtF9ROu-8" value="" style="whiteSpace=wrap;html=1;aspect=fixed;" vertex="1" parent="HIHwOZyWquZLuRu0AlEc-1">
                    <mxGeometry x="400" y="1350" width="80" height="80" as="geometry"/>
                </mxCell>
                <mxCell id="k7XeWjpXcBxLPWtF9ROu-11" value="DATO INSERTADO" style="whiteSpace=wrap;html=1;aspect=fixed;" vertex="1" parent="HIHwOZyWquZLuRu0AlEc-1">
                    <mxGeometry x="600" y="1350" width="80" height="80" as="geometry"/>
                </mxCell>
            </root>
        </mxGraphModel>
    </diagram>
</mxfile>